<svg version="1.1" xmlns="http://www.w3.org/2000/svg" width="100%" viewBox="0 0 500 500">
<path d="M0 0 C2.56640625 0.89453125 2.56640625 0.89453125 4.2265625 3.2578125 C4.68933594 4.23105469 5.15210938 5.20429688 5.62890625 6.20703125 C7.54276262 10.1778856 9.41870147 12.82805756 12.56640625 15.89453125 C12.56640625 16.55453125 12.56640625 17.21453125 12.56640625 17.89453125 C13.14261719 18.15234375 13.71882813 18.41015625 14.3125 18.67578125 C16.7603441 19.99939885 18.57278352 21.52460845 20.62890625 23.39453125 C22.90072632 25.45268686 25.00347882 27.18591296 27.56640625 28.89453125 C27.56640625 29.55453125 27.56640625 30.21453125 27.56640625 30.89453125 C28.22640625 30.89453125 28.88640625 30.89453125 29.56640625 30.89453125 C31.00390625 32.87109375 31.00390625 32.87109375 32.56640625 35.51953125 C33.08203125 36.37804687 33.59765625 37.2365625 34.12890625 38.12109375 C38.38079998 46.32447567 39.11544002 55.18246923 36.69140625 64.12109375 C34.05640867 70.82993628 30.52544355 77.60267265 25.56640625 82.89453125 C23.3515625 83.6640625 23.3515625 83.6640625 21.56640625 83.89453125 C21.23640625 82.90453125 20.90640625 81.91453125 20.56640625 80.89453125 C21.9296875 78.44140625 21.9296875 78.44140625 23.87890625 75.64453125 C28.21434081 69.07228882 30.7258743 62.90675281 29.56640625 54.89453125 C27.5959739 47.67376966 23.71305905 43.03834213 17.56640625 38.89453125 C11.37893696 34.90575876 11.37893696 34.90575876 4.56640625 32.89453125 C4.56276062 33.89154053 4.55911499 34.8885498 4.55535889 35.91577148 C4.51834723 45.33180517 4.46050726 54.74751367 4.38250351 64.16329956 C4.34306815 69.00357377 4.31086036 73.84366712 4.29541016 78.68408203 C4.28021759 83.35921802 4.24572599 88.03385667 4.19809723 92.70877075 C4.18331021 94.4884101 4.17536678 96.26812047 4.1745224 98.04782104 C4.17214285 100.54934118 4.1449857 103.04949781 4.11230469 105.55078125 C4.11985023 106.64375267 4.11985023 106.64375267 4.12754822 107.75880432 C4.00466657 113.87553506 2.10986055 118.98118154 -1.94318008 123.62365723 C-3.43359375 124.89453125 -3.43359375 124.89453125 -5.43359375 124.89453125 C-5.43359375 125.55453125 -5.43359375 126.21453125 -5.43359375 126.89453125 C-7.375 128.33203125 -7.375 128.33203125 -9.99609375 129.89453125 C-10.84300781 130.41015625 -11.68992188 130.92578125 -12.5625 131.45703125 C-18.76595844 134.56298051 -24.56282596 135.2580405 -31.37109375 135.26953125 C-32.13099609 135.29402344 -32.89089844 135.31851563 -33.67382812 135.34375 C-40.83594912 135.38044746 -45.88185552 133.05796149 -51.30859375 128.45703125 C-54.30475919 124.84400822 -55.27236248 122.29186892 -55.80859375 117.64453125 C-55.11385322 110.6971259 -52.71641681 105.69709861 -47.49609375 101.01953125 C-46.15867125 99.95645183 -44.8063409 98.91158683 -43.43359375 97.89453125 C-42.67046875 97.31703125 -41.90734375 96.73953125 -41.12109375 96.14453125 C-31.37934247 91.61348414 -21.04598197 89.84119253 -10.61328125 92.38671875 C-9.45296387 92.66628418 -8.29264648 92.94584961 -7.09716797 93.23388672 C-6.21818848 93.45189941 -5.33920898 93.66991211 -4.43359375 93.89453125 C-4.44834244 92.77366623 -4.46309113 91.65280121 -4.47828674 90.49797058 C-4.61643947 79.94749069 -4.74916963 69.39695475 -4.87655735 58.84633923 C-4.9422276 53.42185295 -5.00982456 47.99740479 -5.08178711 42.57299805 C-5.15113263 37.34056168 -5.21546628 32.10808573 -5.27628899 26.87554359 C-5.30041023 24.87679103 -5.32635361 22.87805962 -5.35412788 20.87935448 C-5.39264787 18.08521203 -5.42475524 15.29106533 -5.45532227 12.49682617 C-5.46826828 11.66604553 -5.48121429 10.83526489 -5.49455261 9.97930908 C-5.5250631 6.67926645 -5.4852357 4.04945711 -4.43359375 0.89453125 C-2.43359375 -0.10546875 -2.43359375 -0.10546875 0 0 Z " fill="#000000" transform="translate(140.43359375,181.10546875)" style="fill:rgb(0, 0, 0);stroke:none;color:rgb(255, 255, 255);stroke-width:1px;stroke-linecap:butt;stroke-linejoin:miter;opacity:1;font-family:&quot;Anthropic Sans&quot;, -apple-system, BlinkMacSystemFont, &quot;Segoe UI&quot;, sans-serif;font-size:16px;font-weight:400;text-anchor:start;dominant-baseline:auto"/>
<path d="M0 0 C0.85323158 0.00037972 1.70646316 0.00075944 2.58555025 0.00115067 C3.56637545 -0.00084038 4.54720066 -0.00283143 5.55774784 -0.00488281 C7.19341329 -0.00051355 7.19341329 -0.00051355 8.86212248 0.00394398 C10.01045511 0.00308955 11.15878775 0.00223513 12.34191835 0.00135481 C15.54351613 -0.00001332 18.74507397 0.00313398 21.94666702 0.00813287 C25.39385276 0.0124342 28.84103649 0.01099118 32.28822416 0.0102306 C38.26542253 0.00970516 44.24261002 0.01285402 50.21980566 0.01846844 C58.86192454 0.02658077 67.50403814 0.02919838 76.14616042 0.03045643 C90.16598096 0.03264737 104.18579569 0.0393086 118.20561308 0.04875904 C131.82800861 0.05793207 145.45040258 0.06501344 159.07280058 0.06926686 C159.91188361 0.06952958 160.75096664 0.0697923 161.61547644 0.07006299 C165.82472982 0.07136798 170.0339832 0.0726317 174.2432366 0.07387489 C209.18683563 0.08424881 244.13042792 0.10186827 279.07402128 0.1241985 C279.40402128 1.7741985 279.73402128 3.4241985 280.07402128 5.1241985 C186.68402128 5.1241985 93.29402128 5.1241985 -2.92597872 5.1241985 C-2.92597872 0.18868441 -2.92597872 0.18868441 0 0 Z " fill="#000000" transform="translate(148.92597872018814,292.8758015036583)" style="fill:rgb(0, 0, 0);stroke:none;color:rgb(255, 255, 255);stroke-width:1px;stroke-linecap:butt;stroke-linejoin:miter;opacity:1;font-family:&quot;Anthropic Sans&quot;, -apple-system, BlinkMacSystemFont, &quot;Segoe UI&quot;, sans-serif;font-size:16px;font-weight:400;text-anchor:start;dominant-baseline:auto"/>
<path d="M0 0 C4.3191962 -0.10038357 8.63773871 -0.17216491 12.95776367 -0.21972656 C14.42110042 -0.23959449 15.88436049 -0.26669882 17.34741211 -0.30175781 C29.16598775 -0.577457 40.46569649 -0.03666149 50.0625 7.75 C56.76308643 14.45058643 58.60266818 20.38335422 59.02734375 29.82421875 C58.95405189 38.336545 56.49491779 44.45090134 51 51 C46.49776482 54.80188748 41.55398368 56.3390944 36 58 C35.01 58.33 34.02 58.66 33 59 C30.48631945 59.0846817 28.00130626 59.11601885 25.48828125 59.09765625 C24.76005661 59.0962413 24.03183197 59.09482635 23.28153992 59.09336853 C20.95848461 59.08777659 18.63552612 59.07522562 16.3125 59.0625 C14.73632952 59.05748396 13.16015752 59.05292123 11.58398438 59.04882812 C7.72261902 59.0378098 3.86132592 59.02055074 0 59 C0 58.01 0 57.02 0 56 C1.32 55.34 2.64 54.68 4 54 C4 37.83 4 21.66 4 5 C2.68 4.34 1.36 3.68 0 3 C0 2.01 0 1.02 0 0 Z M15 5 C15 20.84 15 36.68 15 53 C21.88603336 55.75441334 28.27781787 55.3371875 35.4140625 53.31640625 C41.39515954 50.71843939 45.42329318 45.97966865 47.8125 39.94921875 C50.04625616 31.96043802 49.31817013 24.51883231 46 17 C41.53127675 10.10776281 35.90980991 6.22745248 28 4.25 C21.31866933 3.480097 21.31866933 3.480097 15 5 Z " fill="#000000" transform="translate(304,223)" style="fill:rgb(0, 0, 0);stroke:none;color:rgb(255, 255, 255);stroke-width:1px;stroke-linecap:butt;stroke-linejoin:miter;opacity:1;font-family:&quot;Anthropic Sans&quot;, -apple-system, BlinkMacSystemFont, &quot;Segoe UI&quot;, sans-serif;font-size:16px;font-weight:400;text-anchor:start;dominant-baseline:auto"/>
<path d="M0 0 C1.34771484 -0.01836914 1.34771484 -0.01836914 2.72265625 -0.03710938 C7.27060813 -0.04718608 11.02698671 -0.04400926 15.125 2.1875 C16.125 3.1875 16.125 3.1875 16.22265625 6.12890625 C16.21105469 7.32386719 16.19945312 8.51882812 16.1875 9.75 C16.17847656 10.94753906 16.16945313 12.14507812 16.16015625 13.37890625 C16.14855469 14.30574219 16.13695312 15.23257813 16.125 16.1875 C13.72265625 15.93359375 13.72265625 15.93359375 11.125 15.1875 C10.12109375 13.41015625 10.12109375 13.41015625 9.5625 11.25 C8.73663222 8.08879342 8.73663222 8.08879342 6.3828125 5.9453125 C3.66404679 5.0327856 1.42720378 4.95712688 -1.4375 5 C-2.38753906 5.00644531 -3.33757812 5.01289063 -4.31640625 5.01953125 C-6.9954942 5.08688566 -6.9954942 5.08688566 -9.875 6.1875 C-11.0801797 9.8030391 -11.83300426 13.46272224 -10.875 17.1875 C-6.93138044 21.21753354 -1.98984032 23.06185208 3.125 25.1875 C15.08051825 30.15602707 15.08051825 30.15602707 18.9375 35.875 C20.97632973 41.56226188 20.9999545 46.78595552 18.75 52.4375 C15.71348098 57.90978787 9.8537594 60.0501564 4.1015625 61.8046875 C-4.56248777 63.48270514 -14.0470502 62.1014749 -21.875 58.1875 C-21.875 52.5775 -21.875 46.9675 -21.875 41.1875 C-20.555 41.1875 -19.235 41.1875 -17.875 41.1875 C-17.72804687 41.77917969 -17.58109375 42.37085938 -17.4296875 42.98046875 C-15.80515727 48.70367007 -14.2309272 52.07132417 -8.875 55.1875 C-4.41926164 56.26573156 -0.41096774 56.54698181 4.0625 55.5 C6.55970856 53.91086728 7.76436895 52.83714993 9.125 50.1875 C9.79176878 46.73000051 9.79176878 46.73000051 9.125 43.1875 C5.34545722 38.52728705 1.181114 36.5869981 -4.1875 34.3125 C-18.4982608 27.94097841 -18.4982608 27.94097841 -21.875 21.1875 C-22.42892533 15.26475993 -22.43989548 10.17835368 -18.875 5.1875 C-12.49592597 0.27029711 -7.72171286 0.00549197 0 0 Z " fill="#000000" transform="translate(256.875,221.8125)" style="fill:rgb(0, 0, 0);stroke:none;color:rgb(255, 255, 255);stroke-width:1px;stroke-linecap:butt;stroke-linejoin:miter;opacity:1;font-family:&quot;Anthropic Sans&quot;, -apple-system, BlinkMacSystemFont, &quot;Segoe UI&quot;, sans-serif;font-size:16px;font-weight:400;text-anchor:start;dominant-baseline:auto"/>
<path d="M0 0 C0 0.66 0 1.32 0 2 C0.5775 2.226875 1.155 2.45375 1.75 2.6875 C5.49864264 4.87420821 7.4401404 7.79630186 9.25 11.6875 C10.9188794 19.058384 10.77111355 26.30404641 7 33 C4.4375 36 4.4375 36 2 38 C1.34 38 0.68 38 0 38 C0 38.66 0 39.32 0 40 C-8.32853028 43.91930837 -17.22224603 44.44460891 -26.0625 41.6875 C-29.05905525 40.51972479 -31.69546844 39.30453156 -34 37 C-34 36.34 -34 35.68 -34 35 C-34.66 35 -35.32 35 -36 35 C-40.76252098 27.70738975 -41.19564993 20.56269298 -40 12 C-37.39612501 5.20521672 -32.49854446 1.00905366 -26 -2 C-17.00438606 -5.31417356 -8.50668242 -4.25334121 0 0 Z M-27 6 C-29.78093049 10.61714297 -30.43204455 14.13183758 -30.4375 19.5 C-30.45683594 20.7684375 -30.47617187 22.036875 -30.49609375 23.34375 C-29.92219941 27.57339648 -28.59678731 29.66127346 -26 33 C-24.948125 34.3921875 -24.948125 34.3921875 -23.875 35.8125 C-19.77883938 38.92914395 -16.07252995 39.26868939 -11 39 C-5.77113412 37.35387556 -3.54089052 34.79945988 -1 30 C0.98265905 22.39980696 0.76202734 14.94413743 -3 8 C-7.32449346 3.02420659 -7.32449346 3.02420659 -13.26953125 0.62890625 C-19.73056976 0.46018481 -22.65153298 1.12123213 -27 6 Z " fill="#000000" transform="translate(409,240)" style="fill:rgb(0, 0, 0);stroke:none;color:rgb(255, 255, 255);stroke-width:1px;stroke-linecap:butt;stroke-linejoin:miter;opacity:1;font-family:&quot;Anthropic Sans&quot;, -apple-system, BlinkMacSystemFont, &quot;Segoe UI&quot;, sans-serif;font-size:16px;font-weight:400;text-anchor:start;dominant-baseline:auto"/>
<path d="M0 0 C1.25393555 0.02707031 1.25393555 0.02707031 2.53320312 0.0546875 C4.58513228 0.10158874 6.63646756 0.17332589 8.6875 0.25 C9.0175 1.24 9.3475 2.23 9.6875 3.25 C9.3575 3.91 9.0275 4.57 8.6875 5.25 C8.54844858 6.68513247 8.46226567 8.12564161 8.40625 9.56640625 C8.36886719 10.41267578 8.33148438 11.25894531 8.29296875 12.13085938 C8.22250285 13.92252002 8.15219102 15.71418672 8.08203125 17.50585938 C8.04464844 18.35083984 8.00726563 19.19582031 7.96875 20.06640625 C7.92331055 21.23345093 7.92331055 21.23345093 7.87695312 22.42407227 C7.6875 24.25 7.6875 24.25 6.6875 25.25 C6.64348268 27.58291811 6.64795766 29.91700175 6.6875 32.25 C6.6875 34.25 6.6875 36.25 6.6875 38.25 C-0.24219161 39.56994126 -7.27846509 39.57058604 -14.3125 39.25 C-16.06809942 37.49440058 -15.44471919 35.21417558 -15.44921875 32.87890625 C-15.44535156 32.17636719 -15.44148438 31.47382813 -15.4375 30.75 C-15.44136719 30.04746094 -15.44523437 29.34492188 -15.44921875 28.62109375 C-15.43911378 23.37661378 -15.43911378 23.37661378 -14.3125 22.25 C-13.91256314 19.56137336 -13.56115457 16.88647783 -13.25 14.1875 C-13.15912109 13.42888672 -13.06824219 12.67027344 -12.97460938 11.88867188 C-12.7500626 10.0095699 -12.53079022 8.12983905 -12.3125 6.25 C-12.9725 6.25 -13.6325 6.25 -14.3125 6.25 C-14.3125 4.25 -14.3125 4.25 -12.39453125 2.140625 C-8.16636082 -0.45308158 -4.84905285 -0.19901401 0 0 Z " fill="#000000" transform="translate(115.3125,274.75)" style="fill:rgb(0, 0, 0);stroke:none;color:rgb(255, 255, 255);stroke-width:1px;stroke-linecap:butt;stroke-linejoin:miter;opacity:1;font-family:&quot;Anthropic Sans&quot;, -apple-system, BlinkMacSystemFont, &quot;Segoe UI&quot;, sans-serif;font-size:16px;font-weight:400;text-anchor:start;dominant-baseline:auto"/>
<path d="M0 0 C1.87011719 0.27368164 1.87011719 0.27368164 4 1 C5.15332031 2.57202148 5.15332031 2.57202148 6.078125 4.62109375 C6.43060303 5.38349365 6.78308105 6.14589355 7.14624023 6.93139648 C7.51048096 7.75841064 7.87472168 8.5854248 8.25 9.4375 C8.63551025 10.2819165 9.02102051 11.12633301 9.41821289 11.99633789 C10.62801174 14.65740106 11.8159102 17.32740963 13 20 C13.76399822 21.70847857 14.52831219 23.41681598 15.29296875 25.125 C16.66267309 28.19217245 18.02098308 31.26400385 19.37109375 34.33984375 C19.91391118 35.55996316 20.45685806 36.78002501 21 38 C21.34933594 38.80050781 21.69867188 39.60101563 22.05859375 40.42578125 C23.48094748 42.80423997 25.44173093 43.19212556 28 44 C27.67 44.99 27.34 45.98 27 47 C20.73 47 14.46 47 8 47 C8.33 45.68 8.66 44.36 9 43 C9.66 42.67 10.32 42.34 11 42 C9.68 38.7 8.36 35.4 7 32 C2.05 32 -2.9 32 -8 32 C-10.75154167 37.43742474 -10.75154167 37.43742474 -12 43 C-10.68 43.33 -9.36 43.66 -8 44 C-8 44.99 -8 45.98 -8 47 C-13.28 47 -18.56 47 -24 47 C-23.67 45.68 -23.34 44.36 -23 43 C-22.38697021 42.72937744 -21.77394043 42.45875488 -21.14233398 42.17993164 C-17.88852194 40.38783208 -17.06706467 37.41561047 -15.72265625 34.12109375 C-15.28281654 33.09194603 -15.28281654 33.09194603 -14.83409119 32.04200745 C-13.89764723 29.84558901 -12.97922326 27.64221343 -12.0625 25.4375 C-10.85186522 22.55828215 -9.63357056 19.6824033 -8.41015625 16.80859375 C-8.11839508 16.12107025 -7.82663391 15.43354675 -7.52603149 14.72518921 C-5.3359714 9.62642779 -2.88525209 4.7465438 0 0 Z M-1 14 C-3.71753568 18.13538038 -6 21.98043882 -6 27 C-2.37 27 1.26 27 5 27 C3.35 22.71 1.7 18.42 0 14 C-0.33 14 -0.66 14 -1 14 Z " fill="#000000" transform="translate(206,235)" style="fill:rgb(0, 0, 0);stroke:none;color:rgb(255, 255, 255);stroke-width:1px;stroke-linecap:butt;stroke-linejoin:miter;opacity:1;font-family:&quot;Anthropic Sans&quot;, -apple-system, BlinkMacSystemFont, &quot;Segoe UI&quot;, sans-serif;font-size:16px;font-weight:400;text-anchor:start;dominant-baseline:auto"/>
<path d="M0 0 C2 1 2 1 3 3 C1.68 3 0.36 3 -1 3 C-1 3.66 -1 4.32 -1 5 C-0.34 5 0.32 5 1 5 C0.85978195 7.64624284 0.71310224 10.29184578 0.5625 12.9375 C0.52318359 13.69224609 0.48386719 14.44699219 0.44335938 15.22460938 C0.11328125 20.88671875 0.11328125 20.88671875 -1 22 C-1.07313567 24.53049402 -1.09247527 27.03304837 -1.0625 29.5625 C-1.05798828 30.27341797 -1.05347656 30.98433594 -1.04882812 31.71679688 C-1.03700864 33.47790013 -1.01907263 35.23896036 -1 37 C12.85800712 38.08435683 12.85800712 38.08435683 25 33 C25.30229218 30.69118873 25.25089426 28.57451152 25.078125 26.25390625 C24.99747362 23.92711392 25.42967843 22.24269309 26 20 C26.06624507 18.25113019 26.08552595 16.49997252 26.0625 14.75 C26.05347656 13.85796875 26.04445312 12.9659375 26.03515625 12.046875 C26.02355469 11.37140625 26.01195312 10.6959375 26 10 C29 10 29 10 30.625 11.3125 C32 13 32 13 33 16 C34.11375 15.505 35.2275 15.01 36.375 14.5 C40 13 40 13 42 13 C42.55490217 18.54902171 40.92788459 22.40743186 38 27 C36.48828125 28.73828125 36.48828125 28.73828125 35 30 C34.34 30 33.68 30 33 30 C33 30.66 33 31.32 33 32 C31.05859375 33.4375 31.05859375 33.4375 28.4375 35 C27.59058594 35.515625 26.74367187 36.03125 25.87109375 36.5625 C19.66763531 39.66844926 13.87076779 40.36350925 7.0625 40.375 C6.30259766 40.39949219 5.54269531 40.42398438 4.75976562 40.44921875 C-2.40235537 40.48591621 -7.44826177 38.16343024 -12.875 33.5625 C-15.87116544 29.94947697 -16.83876873 27.39733767 -17.375 22.75 C-16.68025947 15.80259465 -14.28282306 10.80256736 -9.0625 6.125 C-6.18860714 3.82374501 -3.34412338 1.57370512 0 0 Z " fill="#000000" transform="translate(102,276)" style="fill:rgb(0, 0, 0);stroke:none;color:rgb(255, 255, 255);stroke-width:1px;stroke-linecap:butt;stroke-linejoin:miter;opacity:1;font-family:&quot;Anthropic Sans&quot;, -apple-system, BlinkMacSystemFont, &quot;Segoe UI&quot;, sans-serif;font-size:16px;font-weight:400;text-anchor:start;dominant-baseline:auto"/>
<path d="M0 0 C6.93 0 13.86 0 21 0 C21 1.32 21 2.64 21 4 C19.68 4.33 18.36 4.66 17 5 C16.83138917 9.01989623 16.67094367 13.04003007 16.51782227 17.06054688 C16.46468863 18.42619434 16.40938461 19.79175926 16.35180664 21.15722656 C16.26909086 23.12801988 16.19501161 25.0991696 16.12109375 27.0703125 C16.05039673 28.84559326 16.05039673 28.84559326 15.97827148 30.65673828 C15.99953263 33.92808805 16.20118006 36.82633366 17 40 C19.46255685 41.45291273 19.46255685 41.45291273 22 42 C21.67 42.99 21.34 43.98 21 45 C14.07 45 7.14 45 0 45 C0.33 43.68 0.66 42.36 1 41 C2.98 40.505 2.98 40.505 5 40 C5 28.78 5 17.56 5 6 C2.525 5.01 2.525 5.01 0 4 C0 2.68 0 1.36 0 0 Z " fill="#000000" transform="translate(279,237)" style="fill:rgb(0, 0, 0);stroke:none;color:rgb(255, 255, 255);stroke-width:1px;stroke-linecap:butt;stroke-linejoin:miter;opacity:1;font-family:&quot;Anthropic Sans&quot;, -apple-system, BlinkMacSystemFont, &quot;Segoe UI&quot;, sans-serif;font-size:16px;font-weight:400;text-anchor:start;dominant-baseline:auto"/>
<path d="M0 0 C4.42051588 2.41119048 8.4942989 5.37306428 12 9 C12 9.66 12 10.32 12 11 C12.66 11 13.32 11 14 11 C15.4375 12.9765625 15.4375 12.9765625 17 15.625 C17.515625 16.48351562 18.03125 17.34203125 18.5625 18.2265625 C22.81439373 26.42994442 23.54903377 35.28793798 21.125 44.2265625 C18.49000242 50.93540503 14.9590373 57.7081414 10 63 C7.78515625 63.76953125 7.78515625 63.76953125 6 64 C5.505 62.515 5.505 62.515 5 61 C6.36328125 58.546875 6.36328125 58.546875 8.3125 55.75 C12.64793456 49.17775757 15.15946805 43.01222156 14 35 C11.58249415 26.14091212 5.73926662 21.05221654 -2 16.5625 C-2.99 16.046875 -3.98 15.53125 -5 15 C-5 14.34 -5 13.68 -5 13 C-3.68 13 -2.36 13 -1 13 C-1 13.66 -1 14.32 -1 15 C-0.01 15 0.98 15 2 15 C2.12375 14.05125 2.2475 13.1025 2.375 12.125 C3 9 3 9 5 7 C4.360625 6.773125 3.72125 6.54625 3.0625 6.3125 C1 5 1 5 0.25 2.375 C0.1675 1.59125 0.085 0.8075 0 0 Z " fill="#000000" transform="translate(156,201)" style="fill:rgb(0, 0, 0);stroke:none;color:rgb(255, 255, 255);stroke-width:1px;stroke-linecap:butt;stroke-linejoin:miter;opacity:1;font-family:&quot;Anthropic Sans&quot;, -apple-system, BlinkMacSystemFont, &quot;Segoe UI&quot;, sans-serif;font-size:16px;font-weight:400;text-anchor:start;dominant-baseline:auto"/>
<path d="M0 0 C1.29883118 -0.00014603 2.59766235 -0.00029205 3.93585205 -0.0004425 C7.46196192 -0.00072686 10.98803707 0.00511084 14.51413894 0.01213145 C18.21233041 0.01842575 21.91052287 0.01897356 25.60871887 0.02015686 C32.59593048 0.02325239 39.58312625 0.03144157 46.57033092 0.04150635 C54.53173826 0.05272301 62.4931464 0.05819187 70.45455968 0.06320179 C86.8171278 0.07362585 103.17968004 0.09119052 119.54223633 0.11352539 C119.54223633 1.43352539 119.54223633 2.75352539 119.54223633 4.11352539 C105.24234482 4.13694482 90.94245631 4.15448224 76.64254951 4.16533756 C70.00200677 4.17054846 63.3614826 4.1776135 56.72094727 4.18896484 C50.3083674 4.19985749 43.89579993 4.20581573 37.48321152 4.20840263 C35.04090047 4.2102454 32.59859008 4.21384382 30.15628433 4.21925545 C26.72648927 4.22655054 23.29674497 4.22751277 19.86694336 4.22705078 C18.86496414 4.23064606 17.86298492 4.23424133 16.8306427 4.23794556 C11.38647592 4.23004879 6.05928664 3.96201137 0.64865112 3.34833527 C-2.05346295 3.04712058 -4.74948815 2.90638705 -7.46557617 2.79711914 C-8.47104492 2.75522461 -9.47651367 2.71333008 -10.51245117 2.67016602 C-11.5256543 2.63084961 -12.53885742 2.5915332 -13.58276367 2.55102539 C-14.63463867 2.5078418 -15.68651367 2.4646582 -16.77026367 2.42016602 C-19.33266994 2.3153403 -21.89515167 2.21317184 -24.45776367 2.11352539 C-24.45776367 1.78352539 -24.45776367 1.45352539 -24.45776367 1.11352539 C-16.2851083 0.20559145 -8.21836577 -0.0245389 0 0 Z " fill="#000000" transform="translate(309.457763671875,293.886474609375)" style="fill:rgb(0, 0, 0);stroke:none;color:rgb(255, 255, 255);stroke-width:1px;stroke-linecap:butt;stroke-linejoin:miter;opacity:1;font-family:&quot;Anthropic Sans&quot;, -apple-system, BlinkMacSystemFont, &quot;Segoe UI&quot;, sans-serif;font-size:16px;font-weight:400;text-anchor:start;dominant-baseline:auto"/>
</svg>