<?xml version="1.0" standalone="no"?>
<!DOCTYPE svg PUBLIC "-//W3C//DTD SVG 20010904//EN"
 "http://www.w3.org/TR/2001/REC-SVG-20010904/DTD/svg10.dtd">
<svg version="1.0" xmlns="http://www.w3.org/2000/svg"
 width="1407.000000pt" height="586.000000pt" viewBox="0 0 1407.000000 586.000000"
 preserveAspectRatio="xMidYMid meet">

<g transform="translate(0.000000,586.000000) scale(0.100000,-0.100000)"
fill="#000000" stroke="none">
<path d="M2190 5840 c-45 -8 -84 -34 -98 -66 -9 -18 -12 -509 -12 -1918 0
-1041 -3 -1896 -6 -1899 -4 -3 -25 5 -48 18 -57 33 -194 80 -296 101 -92 19
-353 25 -485 12 -552 -58 -1077 -431 -1185 -844 -40 -154 -19 -326 55 -459 98
-175 317 -325 554 -377 132 -30 462 -32 591 -5 206 44 442 144 620 262 104 70
274 241 344 348 32 48 72 122 88 164 61 156 59 86 57 1851 -1 887 1 1616 4
1619 6 6 516 -247 639 -317 163 -93 294 -221 380 -375 90 -160 129 -304 129
-480 0 -286 -118 -587 -328 -835 l-64 -74 36 -36 c34 -34 36 -34 62 -20 48 27
273 331 333 450 102 204 144 343 164 545 35 370 -58 697 -279 981 -90 115
-280 298 -447 430 -96 76 -225 191 -318 285 -140 141 -212 251 -285 434 -26
66 -54 132 -61 147 -23 44 -84 69 -144 58z"/>
<path d="M6735 4180 c-296 -60 -492 -218 -560 -453 -24 -84 -22 -245 4 -334
56 -188 230 -341 536 -473 474 -203 584 -262 672 -363 66 -76 95 -183 81 -304
-20 -181 -176 -335 -381 -377 -296 -61 -598 54 -735 281 -41 68 -93 210 -107
291 l-7 42 -50 0 -51 0 7 -122 c3 -68 9 -203 13 -301 l6 -178 47 -24 c71 -36
265 -100 355 -118 124 -24 151 -27 290 -31 221 -7 404 30 591 121 169 81 307
264 335 443 17 107 6 270 -22 345 -49 132 -118 221 -235 306 -82 59 -269 157
-414 217 -41 17 -120 50 -175 72 -208 86 -340 171 -408 262 -96 130 -67 347
64 461 220 193 588 179 793 -30 49 -50 112 -181 129 -268 l14 -70 46 1 c26 0
49 3 53 6 5 6 -14 376 -21 416 -2 9 -4 34 -4 55 -1 29 -6 39 -23 46 -95 38
-254 76 -378 91 -129 15 -365 10 -465 -10z"/>
<path d="M8956 4131 c-2 -3 -3 -24 -2 -46 l1 -40 62 -7 c101 -11 152 -49 174
-130 16 -62 7 -1860 -10 -1913 -24 -72 -106 -125 -194 -125 -25 0 -37 -21 -37
-66 l0 -20 608 1 c586 1 612 2 737 24 311 55 515 147 688 311 237 223 348 510
334 863 -12 320 -108 553 -316 771 -130 135 -295 234 -498 300 -215 69 -261
72 -1101 80 -243 2 -444 1 -446 -3z m1124 -141 c286 -39 561 -207 708 -433
117 -180 170 -354 179 -577 8 -218 -16 -370 -83 -523 -172 -393 -486 -558
-1040 -546 -153 4 -161 5 -219 34 -73 36 -86 61 -95 170 -11 135 0 1858 12
1872 17 21 388 23 538 3z"/>
<path d="M4920 3588 c-12 -29 -33 -78 -47 -108 -54 -120 -166 -367 -178 -395
-7 -16 -43 -97 -80 -180 -37 -82 -71 -158 -75 -170 -4 -11 -22 -49 -38 -85
-17 -36 -92 -202 -166 -370 -118 -263 -142 -310 -177 -342 -38 -35 -89 -59
-151 -72 -25 -6 -28 -11 -28 -47 l0 -41 183 6 c100 3 228 3 284 -2 56 -4 107
-6 113 -4 5 2 10 21 10 42 0 38 0 38 -51 49 -132 29 -149 81 -80 251 61 149
98 234 115 269 l17 31 337 -2 337 -3 19 -39 c78 -160 176 -399 176 -431 0 -30
-41 -63 -89 -70 -95 -16 -91 -14 -91 -53 l0 -37 380 -1 380 0 0 36 c0 35 -1
37 -52 49 -131 33 -161 67 -270 304 -44 95 -90 195 -103 222 -13 28 -39 84
-58 125 -19 41 -50 109 -70 150 -51 109 -127 279 -127 283 0 3 -20 47 -44 98
-24 52 -70 153 -101 224 -31 72 -80 182 -109 245 l-53 115 -45 3 -45 3 -23
-53z m52 -539 c33 -73 67 -154 78 -179 10 -25 45 -105 79 -178 34 -73 61 -135
61 -137 0 -3 -126 -5 -280 -5 -154 0 -280 3 -280 8 0 13 40 113 54 135 8 12
17 33 21 47 4 14 15 43 25 65 10 22 39 90 64 150 26 61 56 128 65 150 10 22
22 50 26 63 3 13 12 21 18 19 5 -1 37 -64 69 -138z"/>
<path d="M12420 3566 c-203 -40 -307 -87 -455 -205 -38 -30 -92 -78 -118 -106
-250 -262 -306 -664 -139 -999 83 -167 241 -325 413 -412 196 -99 495 -138
718 -94 199 40 348 109 482 223 206 177 311 407 311 681 1 314 -129 562 -393
749 -90 63 -195 111 -314 142 -84 22 -127 27 -270 30 -114 3 -191 0 -235 -9z
m342 -125 c208 -54 367 -203 456 -431 46 -118 64 -221 64 -370 0 -259 -74
-478 -205 -609 -125 -125 -211 -161 -397 -169 -137 -5 -207 10 -320 69 -138
71 -232 175 -309 341 -67 142 -86 237 -85 423 1 188 18 266 88 410 54 110 133
201 233 266 66 43 103 56 228 82 54 12 178 5 247 -12z"/>
<path d="M7968 3552 c-2 -4 -4 -23 -3 -42 0 -34 0 -34 62 -47 95 -19 121 -36
151 -101 l27 -57 0 -625 c0 -653 -3 -696 -44 -746 -24 -30 -57 -46 -131 -64
-63 -16 -65 -17 -67 -51 l-3 -35 400 0 400 0 0 37 c0 41 2 40 -92 59 -68 13
-110 48 -129 106 -19 56 -26 1232 -8 1317 22 105 58 139 169 159 l60 10 0 39
c0 45 13 42 -160 38 -160 -5 -475 -2 -562 5 -37 3 -69 2 -70 -2z"/>
<path d="M3845 2203 c-35 -80 -137 -189 -210 -226 -128 -64 -230 -83 -505 -93
-102 -3 -188 -8 -192 -11 -5 -2 -8 -24 -8 -48 l0 -44 462 2 463 2 28 100 c15
55 40 162 56 237 l28 136 -21 6 c-58 16 -70 9 -101 -61z"/>
<path d="M2513 1243 c-20 -7 -17 -99 3 -107 20 -8 11482 -8 11512 0 19 5 22
13 22 54 0 44 -2 48 -27 53 -34 7 -11493 7 -11510 0z"/>
<path d="M6819 866 c-94 -36 -176 -101 -210 -168 -26 -51 -47 -154 -42 -209
16 -188 133 -312 320 -339 170 -24 326 53 398 197 28 54 30 65 30 173 -1 137
-16 179 -91 255 -76 76 -137 100 -264 102 -70 2 -117 -2 -141 -11z m207 -65
c53 -24 101 -83 122 -151 22 -72 21 -227 -2 -289 -59 -161 -222 -201 -336 -82
-53 55 -79 120 -87 216 -7 86 15 182 55 240 53 77 160 106 248 66z"/>
<path d="M8900 864 c-94 -41 -133 -97 -134 -190 0 -101 37 -141 189 -205 106
-45 175 -99 175 -138 0 -41 -28 -89 -61 -106 -23 -12 -49 -16 -90 -13 -78 6
-129 40 -160 107 -17 40 -28 51 -45 51 -22 0 -23 -2 -18 -67 3 -38 7 -78 10
-89 5 -28 65 -52 161 -64 198 -25 333 59 333 209 0 107 -34 144 -200 223 -71
34 -135 71 -147 86 -33 40 -29 78 12 119 34 34 38 35 94 31 72 -5 123 -36 147
-90 11 -24 24 -38 36 -38 15 0 18 8 18 49 0 97 -6 107 -69 125 -72 20 -204 20
-251 0z"/>
<path d="M5480 854 c0 -9 13 -21 29 -27 16 -6 32 -20 35 -31 3 -12 6 -144 6
-293 0 -259 -1 -274 -20 -293 -11 -11 -26 -17 -35 -14 -10 4 -15 0 -15 -15 0
-20 4 -21 145 -21 80 0 145 3 145 8 0 15 -16 30 -35 33 -35 7 -45 46 -45 177
l0 122 165 0 165 0 0 -133 c0 -141 -4 -153 -52 -170 -10 -4 -18 -13 -18 -22 0
-13 22 -15 146 -15 130 0 145 2 142 17 -2 9 -14 18 -27 20 -49 7 -51 17 -48
323 l2 285 35 16 c19 9 35 23 35 30 0 11 -31 15 -142 17 -122 2 -143 0 -143
-12 0 -9 13 -22 30 -31 37 -19 41 -35 38 -160 l-3 -100 -162 -3 -163 -2 0 120
0 120 40 25 c23 14 38 30 35 35 -4 6 -67 10 -146 10 -120 0 -139 -2 -139 -16z"/>
<path d="M7667 863 c-14 -13 -6 -24 23 -35 18 -6 32 -19 34 -31 3 -12 7 -119
9 -238 5 -194 7 -222 26 -265 40 -90 97 -130 201 -143 142 -18 254 15 315 94
42 57 54 127 55 331 0 100 5 194 10 210 7 19 22 34 41 41 18 7 29 18 27 25 -3
9 -34 14 -108 16 -57 1 -110 0 -117 -2 -16 -6 -6 -36 12 -36 7 0 22 -8 34 -17
20 -17 21 -26 22 -229 0 -131 -4 -221 -11 -240 -46 -119 -225 -154 -309 -59
-46 52 -52 92 -49 317 l3 203 32 15 c18 8 33 23 33 33 0 15 -13 17 -138 17
-76 0 -142 -3 -145 -7z"/>
<path d="M9610 850 c0 -15 7 -20 25 -20 14 0 29 -8 35 -19 12 -24 14 -570 1
-589 -4 -7 -21 -16 -37 -21 -16 -4 -29 -14 -29 -22 0 -12 45 -14 277 -17 l277
-2 6 32 c3 18 10 56 15 83 7 39 6 53 -6 65 -16 17 -27 9 -52 -40 -32 -63 -61
-75 -175 -75 -98 0 -102 1 -114 25 -8 16 -13 66 -13 138 l0 112 76 0 c87 0
107 -8 124 -50 22 -52 40 -38 41 33 0 34 1 79 2 100 1 28 -3 42 -15 48 -14 8
-20 3 -32 -26 -18 -42 -24 -45 -96 -47 -111 -2 -101 -15 -98 125 l3 122 99 3
c120 3 150 -7 177 -59 28 -56 49 -51 49 10 0 27 -3 63 -6 80 l-6 31 -264 0
c-257 0 -264 -1 -264 -20z"/>
</g>
</svg>
